<svg xmlns="http://www.w3.org/2000/svg" xmlns:xlink="http://www.w3.org/1999/xlink" width="500" zoomAndPan="magnify" viewBox="0 0 375 374.999991" height="500" preserveAspectRatio="xMidYMid meet" version="1.2"><g id="85a6d880da"><path style=" stroke:none;fill-rule:evenodd;fill:#237293;fill-opacity:1;" d="M 153.144531 16.058594 C 131.394531 20.851562 97.382812 37.589844 80.453125 51.835938 C 53.320312 74.671875 32.207031 107.796875 22.667969 142.496094 C 16.824219 163.753906 16.824219 211.15625 22.667969 232.414062 C 44.808594 312.972656 118.28125 366.816406 199.238281 361.816406 C 261.445312 357.972656 313.5 323.054688 342.289062 265.863281 C 354.960938 240.679688 360.191406 217.78125 360.191406 187.457031 C 360.191406 108.535156 311.636719 42.582031 236.191406 19.027344 C 216.105469 12.753906 174.839844 11.28125 153.144531 16.058594 M 136.863281 76.59375 C 136.046875 80.691406 134.699219 94.382812 133.871094 107.015625 L 132.363281 129.992188 L 149.851562 134.210938 C 175.679688 140.445312 212.964844 151.457031 226.847656 156.957031 C 241.523438 162.769531 241.40625 162.398438 243.433594 208 L 244.929688 241.554688 L 262.925781 245.695312 C 272.824219 247.972656 286.753906 249.910156 293.878906 249.996094 L 306.832031 250.160156 L 308.835938 237.148438 C 309.9375 229.988281 310.464844 200.609375 310.003906 171.859375 C 309.316406 128.738281 308.503906 118.566406 305.355469 113.761719 C 302.40625 109.261719 295.144531 105.957031 273.484375 99.261719 C 225.507812 84.425781 160.902344 69.144531 146.1875 69.144531 C 139.296875 69.144531 138.175781 70.039062 136.863281 76.59375 M 69.878906 127.507812 C 67.222656 140.058594 67.9375 246.171875 70.734375 254.894531 C 72.773438 261.246094 75.367188 262.792969 95.332031 269.570312 C 138.820312 284.328125 234.757812 306.582031 238.550781 302.785156 C 240.976562 300.359375 244.480469 267.960938 243.773438 254.535156 L 243.0625 241.109375 L 212.300781 233.195312 C 178.320312 224.453125 154.132812 216.898438 144.417969 211.992188 C 136.898438 208.195312 135.5625 201.746094 133.328125 158.4375 L 131.847656 129.773438 L 112.917969 125.632812 C 102.507812 123.355469 88.996094 120.804688 82.894531 119.960938 L 71.800781 118.429688 Z M 69.878906 127.507812 "/></g></svg>